# xmcd CD database file
#
# Track frame offsets:
#	150
#	26397
#	57152
#	76067
#	100883
#	114032
#	127022
#	152399
#	168003
#	190773
#	212929
#
# Disc length: 3125 seconds
#
# Revision: 0
# Processed by: cddbd v1.5.1PL2 Copyright (c) Steve Scherf et al.
# Submitted via: CDex 1.51
#
DISCID=7a0c330b
DTITLE=青木カレン - TOKYO Jz TRIPPIN'
DYEAR=2006
DGENRE=Jazz
TTITLE0=Gee Baby, Ain't I Good To You
TTITLE1=My Funny Valentine
TTITLE2=I've Got The World On A String
TTITLE3=I Didn't Know About You
TTITLE4='S Wonderful
TTITLE5=Lullaby Of Birdland
TTITLE6=Don't Explain
TTITLE7=Love Me Or Leave Me
TTITLE8=Only Trust Your Heart
TTITLE9=Crazy He Calls Me
TTITLE10=Dindi
EXTD=YEAR: 2006
EXTT0=
EXTT1=
EXTT2=
EXTT3=
EXTT4=
EXTT5=
EXTT6=
EXTT7=
EXTT8=
EXTT9=
EXTT10=
PLAYORDER=
